<svg id="Job_resume_business_trophy_achievement" data-name="Job resume business trophy achievement" xmlns="http://www.w3.org/2000/svg" width="82.494" height="120" viewBox="0 0 82.494 120">
  <path id="Path_128" data-name="Path 128" d="M96.6,13.547a11.333,11.333,0,0,0-8.36-3.693H81.792L82,4.333A1.333,1.333,0,0,0,80.672,3H35.992a1.322,1.322,0,0,0-1.333,1.387l.213,5.467h-6.48A11.32,11.32,0,0,0,17.112,22.2l2.173,24.08A19.787,19.787,0,0,0,39.072,64.333h.307a21.533,21.533,0,0,0,11.347,9.76,5.147,5.147,0,0,0-.56,2.333,1.333,1.333,0,0,0,.093.493c4.053,10.08,5.667,17.187.693,19.413a1.333,1.333,0,0,0-.787,1.213,5.04,5.04,0,0,0,.587,2.333H44.3a1.333,1.333,0,0,0-1.333,1.333v12.64H38.712a1.333,1.333,0,0,0-1.333,1.333v6.48A1.333,1.333,0,0,0,38.712,123H77.818a1.333,1.333,0,0,0,1.333-1.333v-6.48a1.333,1.333,0,0,0-1.333-1.333H73.565v-12.64a1.333,1.333,0,0,0-1.333-1.333H66.2a5.04,5.04,0,0,0,.587-2.333A1.333,1.333,0,0,0,66,96.333c-4.973-2.227-3.32-9.333.693-19.4a1.333,1.333,0,0,0,.093-.493,5.187,5.187,0,0,0-.6-2.427,21.587,21.587,0,0,0,11.093-9.68h.267A19.773,19.773,0,0,0,97.338,46.28L99.512,22.2A11.32,11.32,0,0,0,96.6,13.547ZM79.992,54.68l1.467-36.573h6.787A3.064,3.064,0,0,1,91.3,21.453l-2.173,24.08a11.52,11.52,0,0,1-9.24,10.307C79.925,55.453,79.978,55.067,79.992,54.68Zm-43.32,0c0,.387.067.773.093,1.173a11.493,11.493,0,0,1-9.253-10.32l-2.187-24.08a3.08,3.08,0,0,1,3.067-3.347h6.813ZM22.005,46.04l-2.24-24.08a8.667,8.667,0,0,1,8.627-9.44h6.587l.12,2.92H28.432a5.76,5.76,0,0,0-5.76,6.227l2.187,24.08a14.133,14.133,0,0,0,12.333,12.84,22.533,22.533,0,0,0,.92,3.08A17.093,17.093,0,0,1,21.938,46.04Zm54.48,74.293H40.045V116.52h36.44Zm-5.587-6.48H45.632V102.547H70.9ZM64.112,76.2C60.618,84.987,57.578,94.507,64,98.307a2.213,2.213,0,0,1-2.093,1.573h-6.88a2.2,2.2,0,0,1-2.053-1.573c6.44-3.787,3.387-13.333-.107-22.107a2.387,2.387,0,0,1,.533-1.333,21.08,21.08,0,0,0,10.147,0A2.333,2.333,0,0,1,64.112,76.2Zm-.173-4.213h-.187a1.227,1.227,0,0,0-.787.28,18.88,18.88,0,0,1-4.627.587,19.079,19.079,0,0,1-4.387-.533,1.333,1.333,0,0,0-1.053-.253A18.96,18.96,0,0,1,39.338,54.6l-1.52-37.8h0l-.227-5.507v-.147l-.213-5.48H79.285l-.227,5.52h0l-.213,5.587h0l-1.52,37.8A18.947,18.947,0,0,1,63.938,71.987ZM96.858,21.96,94.685,46.04A17.093,17.093,0,0,1,78.538,61.667a20.747,20.747,0,0,0,.92-3.013,14.173,14.173,0,0,0,12.32-12.84l2.173-24.147a5.733,5.733,0,0,0-5.707-6.253H81.578l.12-2.92h6.56a8.64,8.64,0,0,1,8.613,9.44Z" transform="translate(-17.065 -3)" fill="#f4f1de"/>
  <path id="Path_129" data-name="Path 129" d="M58.66,25.85l-6.73-1-3-6.1a1,1,0,0,0-1.8,0l-3,6.1-6.73,1a.979.979,0,0,0-.55,1.68L41.7,32.3,40.55,39A1,1,0,0,0,42,40.08l6-3.16,6,3.16A1,1,0,0,0,55.49,39l-1.15-6.7,4.87-4.75a1,1,0,0,0-.55-1.7Zm-6.09,5.39a1,1,0,0,0-.29.88l.9,5.23-4.7-2.47a1,1,0,0,0-.93,0l-4.69,2.47.9-5.23a1,1,0,0,0-.29-.88l-3.8-3.7,5.25-.77a1,1,0,0,0,.75-.54L48,21.47l2.35,4.76a1,1,0,0,0,.75.54l5.25.77Z" transform="translate(-6.738 3.703)" fill="#f4f1de"/>
</svg>
