<svg xmlns="http://www.w3.org/2000/svg" width="80.333" height="120" viewBox="0 0 80.333 120">
  <g id="Job_Resume_Business_communication_chat" data-name="Job Resume Business communication chat" transform="translate(-17.89 -3)">
    <path id="Path_155" data-name="Path 155" d="M32.825,43.37a7.95,7.95,0,0,0-7.95,7.95v3.22a7.95,7.95,0,1,0,15.781,0V51.267a7.95,7.95,0,0,0-7.831-7.9Zm5.3,11.17a5.3,5.3,0,1,1-10.481,0V51.267a5.3,5.3,0,1,1,10.481,0Z" transform="translate(2.251 13.524)" fill="#f4f1de"/>
    <path id="Path_156" data-name="Path 156" d="M59.2,51.519v3.273a7.95,7.95,0,1,0,15.781,0V51.519a7.95,7.95,0,1,0-15.781,0Zm13.131,0v3.273a5.3,5.3,0,1,1-10.481,0V51.519a5.3,5.3,0,1,1,10.481,0Z" transform="translate(13.909 13.269)" fill="#f4f1de"/>
    <path id="Path_157" data-name="Path 157" d="M98.223,77.943V65.885a1.333,1.333,0,0,0-2.667,0V77.943a6.866,6.866,0,0,1-6.093,6.771,7.921,7.921,0,0,0,1.907-5.168V66.535A8,8,0,0,0,75.676,64L74.21,68.39H66.423a4.606,4.606,0,0,0-3.842,2.164,4.547,4.547,0,0,0-.238,4.382h-3.92a.912.912,0,0,0-.747,0h-4a4.547,4.547,0,0,0-.238-4.382A4.606,4.606,0,0,0,49.6,68.39H41.823L40.357,64A8.005,8.005,0,0,0,24.7,66.535V79.547a7.922,7.922,0,0,0,1.947,5.168,6.866,6.866,0,0,1-6.093-6.771V65.885a1.333,1.333,0,0,0-2.667,0V77.943a9.541,9.541,0,0,0,7.52,9.275l-7.373,14.708a1.321,1.321,0,0,0,.587,1.789,1.372,1.372,0,0,0,1.8-.6l7.853-15.675H39.5v15.543a1.333,1.333,0,0,0,2.667,0V87.444H42.5a1.966,1.966,0,0,1,1.395.566,1.942,1.942,0,0,1,.579,1.382v13.131a1.329,1.329,0,0,0,1.333,1.325h9.867a1.334,1.334,0,0,0,1.187-.755,1.309,1.309,0,0,0,2.36.026,1.334,1.334,0,0,0,1.173.729h9.867a1.329,1.329,0,0,0,1.333-1.325V89.392a1.942,1.942,0,0,1,.579-1.382,1.966,1.966,0,0,1,1.395-.566H73.9v15.543a1.333,1.333,0,0,0,2.667,0V87.444H87.836l7.853,15.675a1.372,1.372,0,0,0,1.8.6,1.321,1.321,0,0,0,.547-1.789L90.7,87.219A9.541,9.541,0,0,0,98.223,77.943ZM54.343,101.2h-7.2V89.392a4.626,4.626,0,0,0-4.64-4.6H32.6a5.27,5.27,0,0,1-3.8-1.528,5.2,5.2,0,0,1-1.538-3.772V66.535a5.335,5.335,0,0,1,10.493-1.683l1.773,5.3a1.333,1.333,0,0,0,1.333.914H49.61a1.927,1.927,0,0,1,1.867,1.948,1.966,1.966,0,0,1-1.827,1.948H38.1L33.8,67.886a1.339,1.339,0,0,0-1.748-.366,1.321,1.321,0,0,0-.545,1.691l4.707,7.725a1.335,1.335,0,0,0,1.133.636h.533v1.961a1.329,1.329,0,0,0,1.333,1.325h6.6a5.317,5.317,0,0,1,5.333,5.3v9.805a1.329,1.329,0,0,0,1.333,1.325,1.967,1.967,0,0,1,1.947,1.948Zm2.36-3.511a4.641,4.641,0,0,0-2.973-2.836V86.119a7.846,7.846,0,0,0-2.319-5.645,7.946,7.946,0,0,0-5.681-2.3H40.543v-.623H56.7Zm2.667-.079V77.586H75.53v.623H70.263a7.945,7.945,0,0,0-5.681,2.3,7.846,7.846,0,0,0-2.319,5.645v8.732a4.668,4.668,0,0,0-2.893,2.716ZM88.7,79.547a5.2,5.2,0,0,1-1.538,3.772,5.271,5.271,0,0,1-3.8,1.528h-9.8a4.626,4.626,0,0,0-4.64,4.6v11.806h-7.2V99.237a1.967,1.967,0,0,1,1.947-1.948,1.329,1.329,0,0,0,1.333-1.325V86.119a5.317,5.317,0,0,1,5.333-5.3h6.6a1.329,1.329,0,0,0,1.333-1.325V77.586h.56a1.335,1.335,0,0,0,1.147-.636l4.693-7.725a1.318,1.318,0,0,0,.14-1.423,1.337,1.337,0,0,0-2.42.1l-4.36,7.036H66.383a1.966,1.966,0,0,1-1.827-1.948,1.927,1.927,0,0,1,1.867-1.948h8.853a1.332,1.332,0,0,0,1.2-.9l1.773-5.3a5.336,5.336,0,0,1,10.453,1.7Z" transform="translate(0 18.688)" fill="#f4f1de"/>
    <path id="Path_158" data-name="Path 158" d="M40.268,38.419v8.573a1.325,1.325,0,0,0,.828,1.219,1.452,1.452,0,0,0,.507.106,1.34,1.34,0,0,0,.948-.4l5.114-5.075a17.717,17.717,0,0,0,6.6,1.325h6.062l9.521,9.448a1.334,1.334,0,0,0,2.283-.928V44.077a17.722,17.722,0,0,0-.895-35.392A17.984,17.984,0,0,0,58.161,3H41.6a17.726,17.726,0,0,0-1.335,35.419ZM85.989,26.387a15.151,15.151,0,0,1-15.2,15.039,1.33,1.33,0,0,0-1.335,1.325v6.625L61.82,41.8a1.341,1.341,0,0,0-.948-.384h-6.61a15.237,15.237,0,0,1-4.527-.689l2.35-2.319h6.076A17.825,17.825,0,0,0,76.014,20.729a10.555,10.555,0,0,0-.067-1.444v-.424a5.508,5.508,0,0,0-.147-1.034.85.85,0,0,0-.08-.437,11.094,11.094,0,0,0-.267-1.193,1.234,1.234,0,0,0,0-.212,13.271,13.271,0,0,0-.441-1.325l-.134-.358c-.134-.331-.267-.649-.427-.981,0-.133-.12-.265-.187-.411l-.534-.981-.187-.3v-.093A15.151,15.151,0,0,1,85.989,26.387ZM41.6,5.65H58.161a15.089,15.089,0,0,1,0,30.171H51.485a1.341,1.341,0,0,0-.935.384l-4.193,4.147L42.9,43.785V37.16a1.33,1.33,0,0,0-1.335-1.325A15.093,15.093,0,1,1,41.6,5.65Z" transform="translate(1.852 0)" fill="#f4f1de"/>
    <rect id="Rectangle_58" data-name="Rectangle 58" width="4.293" height="4.293" rx="1.5" transform="translate(39.684 18.079)" fill="#f4f1de"/>
    <rect id="Rectangle_59" data-name="Rectangle 59" width="4.293" height="4.293" rx="1.5" transform="translate(49.594 18.079)" fill="#f4f1de"/>
    <rect id="Rectangle_60" data-name="Rectangle 60" width="4.293" height="4.293" rx="1.5" transform="translate(59.505 18.079)" fill="#f4f1de"/>
  </g>
</svg>
