<svg id="Layer_2" data-name="Layer 2" xmlns="http://www.w3.org/2000/svg" viewBox="0 0 96 96"><title>Job Resume Business communication chat</title><path d="M25.9,49.33V51.8a5,5,0,1,0,9.91,0V49.33a5,5,0,1,0-9.91,0Z"/><rect x="60.19" y="44.37" width="9.91" height="12.38" rx="4.95" ry="4.95"/><path d="M78.14,73.1V64a1,1,0,0,0-2,0V73.1A5.18,5.18,0,0,1,71,78.27H70a6,6,0,0,0,.55-.45A5,5,0,0,0,72,74.31V64.49a5,5,0,0,0-9.82-1.59l-1.33,4H54.29a2.46,2.46,0,0,0-2.4,2.47,2.49,2.49,0,0,0,.49,1.47H48.29a.68.68,0,0,0-.56,0H43.62a2.49,2.49,0,0,0,.49-1.47,2.46,2.46,0,0,0-2.4-2.47H35.12l-1.33-4A5,5,0,0,0,24,64.49v9.82a5,5,0,0,0,1.45,3.51,6,6,0,0,0,.55.45H25a5.18,5.18,0,0,1-5.17-5.17V64a1,1,0,0,0-2,0V73.1a7.19,7.19,0,0,0,5.64,7L18,91.2a1,1,0,0,0,.44,1.35,1,1,0,0,0,.45.1,1,1,0,0,0,.9-.55l5.89-11.83H34.1V92a1,1,0,0,0,2,0V79.27h.25a2.48,2.48,0,0,1,2.48,2.47v9.91h7.4V89.17a2.48,2.48,0,0,0-2.45-2.47V79.27a4.93,4.93,0,0,0-5-5H33.88V72.83H47V91.65a1,1,0,0,0,2,0V72.83H62.12v1.48H57.17a5,5,0,0,0-5,5V86.7a2.48,2.48,0,0,0-2.45,2.47v2.48h7.4V81.74a2.48,2.48,0,0,1,2.48-2.47h.25V92a1,1,0,0,0,2,0V80.27h8.45L76.24,92.1a1,1,0,0,0,.9.55,1,1,0,0,0,.45-.1A1,1,0,0,0,78,91.2L72.5,80.1A7.19,7.19,0,0,0,78.14,73.1Z"/><path d="M37.08,27.76a1,1,0,0,1,1,1v5l5.73-5.73a1,1,0,0,1,.7-.29h5A11.38,11.38,0,0,0,49.48,5H37.08a11.38,11.38,0,0,0,0,22.76Zm12-11.88a1.51,1.51,0,0,1,1.5-1.51h.23a1.51,1.51,0,0,1,1.5,1.51v.23a1.5,1.5,0,0,1-1.5,1.5h-.23a1.5,1.5,0,0,1-1.5-1.5Zm-7.43,0a1.51,1.51,0,0,1,1.5-1.51h.23a1.52,1.52,0,0,1,1.51,1.51v.23a1.51,1.51,0,0,1-1.51,1.5h-.23a1.5,1.5,0,0,1-1.5-1.5Zm-7.43,0a1.51,1.51,0,0,1,1.5-1.51H36a1.52,1.52,0,0,1,1.51,1.51v.23A1.51,1.51,0,0,1,36,17.61h-.23a1.5,1.5,0,0,1-1.5-1.5Z"/><path d="M61.27,10.07a4,4,0,0,1,.21.41c.11.22.21.44.31.66s.2.5.29.76.19.56.26.84a.32.32,0,0,1,0,.09c.08.27.14.54.2.82s.11.59.15.9.08.58.1.88v.07c0,.29,0,.58,0,.88A13.39,13.39,0,0,1,49.48,29.76H44.93l-1.76,1.76a11.32,11.32,0,0,0,3.39.51h4.95a1,1,0,0,1,.71.3l5.72,5.72V33a1,1,0,0,1,1-1,11.38,11.38,0,0,0,2-22.59l.06.11C61.09,9.72,61.18,9.9,61.27,10.07Z"/></svg>