<svg xmlns="http://www.w3.org/2000/svg" width="128.236" height="120" viewBox="0 0 128.236 120">
  <g id="Job_resume_business_cover_letter_personal_resume_cv" data-name="Job resume business cover letter personal resume cv" transform="translate(-1.9 -5.89)">
    <path id="Path_130" data-name="Path 130" d="M116.714,5.89H38.347A12.98,12.98,0,0,0,25.4,18.714v92.771H3.325A1.425,1.425,0,0,0,1.9,112.91a12.966,12.966,0,0,0,12.966,12.98H93.232a13.422,13.422,0,0,0,13.393-12.824s0-.1,0-.157V20.723h22.085a1.425,1.425,0,0,0,1.425-1.425A13.436,13.436,0,0,0,116.714,5.89Zm0,2.85h0a10.558,10.558,0,0,1,10.444,9.133H106.683A10.1,10.1,0,0,1,116.714,8.74ZM14.866,123.04a10.116,10.116,0,0,1-9.974-8.706H80.409a12.824,12.824,0,0,0,4.787,8.677Zm78.366,0h0A10.116,10.116,0,0,1,83.144,112.91a1.425,1.425,0,0,0-1.425-1.425H28.231v-92.7a10.116,10.116,0,0,1,10.1-9.974h70.3a12.952,12.952,0,0,0-4.859,9.974.926.926,0,0,0,0,.285v93.412h0A10.572,10.572,0,0,1,93.232,123.04Z" fill="#393d3f"/>
    <path id="Path_131" data-name="Path 131" d="M43.5,50.859a18.34,18.34,0,0,0,8.6,2.092,18.6,18.6,0,1,0-8.6-2.092Zm15.088-2.192-.6.258-.6.229a11.981,11.981,0,0,1-1.161.358l-.559.158c-.444.1-.888.172-1.333.229H53.9a15.89,15.89,0,0,1-3.6,0h-.4a7.893,7.893,0,0,1-1.433-.244l-.53-.143c-.4-.115-.8-.229-1.189-.373l-.6-.229-.6-.272V43.594a6.491,6.491,0,0,1,12.9,0ZM52.1,18.577A15.761,15.761,0,0,1,61.454,46.99v-3.4a9.349,9.349,0,0,0-18.7,0V47a15.761,15.761,0,0,1,9.313-28.442Z" transform="translate(13.309 4.249)" fill="#393d3f"/>
    <path id="Path_132" data-name="Path 132" d="M48.181,32.659a5.731,5.731,0,0,0,5.731-5.731V24.491a5.731,5.731,0,1,0-11.463,0v2.436A5.731,5.731,0,0,0,48.181,32.659ZM45.316,24.52a2.866,2.866,0,0,1,5.731,0v2.436a2.866,2.866,0,1,1-5.731,0Z" transform="translate(17.196 5.454)" fill="#393d3f"/>
    <path id="Path_133" data-name="Path 133" d="M85.747,47H28.433a1.433,1.433,0,1,0,0,2.866H85.747a1.433,1.433,0,0,0,0-2.866Z" transform="translate(10.488 17.457)" fill="#393d3f"/>
    <path id="Path_134" data-name="Path 134" d="M85.747,51H28.433a1.433,1.433,0,1,0,0,2.866H85.747a1.433,1.433,0,0,0,0-2.866Z" transform="translate(10.488 19.156)" fill="#393d3f"/>
    <path id="Path_135" data-name="Path 135" d="M85.747,55H28.433a1.433,1.433,0,1,0,0,2.866H85.747a1.433,1.433,0,0,0,0-2.866Z" transform="translate(10.488 20.854)" fill="#393d3f"/>
    <path id="Path_136" data-name="Path 136" d="M85.747,59H28.433a1.433,1.433,0,1,0,0,2.866H85.747a1.433,1.433,0,0,0,0-2.866Z" transform="translate(10.488 22.553)" fill="#393d3f"/>
    <path id="Path_137" data-name="Path 137" d="M85.747,63H28.433a1.433,1.433,0,1,0,0,2.866H85.747a1.433,1.433,0,1,0,0-2.866Z" transform="translate(10.488 24.251)" fill="#393d3f"/>
    <path id="Path_138" data-name="Path 138" d="M85.747,67H28.433a1.433,1.433,0,1,0,0,2.866H85.747a1.433,1.433,0,0,0,0-2.866Z" transform="translate(10.488 25.95)" fill="#393d3f"/>
    <path id="Path_139" data-name="Path 139" d="M85.747,71H28.433a1.433,1.433,0,1,0,0,2.866H85.747a1.433,1.433,0,0,0,0-2.866Z" transform="translate(10.488 27.649)" fill="#393d3f"/>
    <path id="Path_140" data-name="Path 140" d="M85.747,75H28.433a1.433,1.433,0,1,0,0,2.866H85.747a1.433,1.433,0,0,0,0-2.866Z" transform="translate(10.488 29.24)" fill="#393d3f"/>
  </g>
</svg>
