<svg xmlns="http://www.w3.org/2000/svg" width="125.832" height="120" viewBox="0 0 125.832 120">
  <g id="Job_resume_business_presentation" data-name="Job resume business presentation" transform="translate(-3.07 -7)">
    <path id="Path_141" data-name="Path 141" d="M127.5,18.185a1.4,1.4,0,0,0,1.4-1.4V8.4A1.4,1.4,0,0,0,127.5,7H4.468a1.4,1.4,0,0,0-1.4,1.4v8.389a1.4,1.4,0,0,0,1.4,1.4H8.663v75.5H4.468a1.4,1.4,0,1,0,0,2.8h60.12v22.37a4.194,4.194,0,1,0,2.8,0V96.481H127.5a1.4,1.4,0,1,0,0-2.8H123.31v-75.5ZM65.888,124.248a1.4,1.4,0,1,1,1.4-1.4A1.4,1.4,0,0,1,65.888,124.248ZM5.866,9.8h120.24v5.593H5.866ZM120.514,93.685H11.459v-75.5H120.514Z" transform="translate(0 0)"/>
    <path id="Path_142" data-name="Path 142" d="M17.384,55.017a2.794,2.794,0,0,0,2.794-2.794,2.92,2.92,0,0,0-.1-.712L36.117,35.432a2.794,2.794,0,0,0,.852.14,2.962,2.962,0,0,0,.866-.14l9.779,9.779a2.571,2.571,0,0,0,0,.573A2.794,2.794,0,1,0,53.1,45.1L71.04,27.218v3.171a1.4,1.4,0,0,0,2.794,0V23.837a1.419,1.419,0,0,0-1.4-1.4H65.9a1.4,1.4,0,0,0,0,2.794h3.171L51.162,43.143a3.031,3.031,0,0,0-.726-.112,2.794,2.794,0,0,0-.852.154L39.8,33.406a3.786,3.786,0,0,0,0-.573,2.794,2.794,0,0,0-5.588,0,2.57,2.57,0,0,0,0,.573L18.1,49.527a2.92,2.92,0,0,0-.712-.1,2.794,2.794,0,1,0,0,5.588Z" transform="translate(4.573 6.154)"/>
    <path id="Path_143" data-name="Path 143" d="M16.037,20.9H27.212a1.4,1.4,0,0,0,0-2.794H16.037a1.4,1.4,0,0,0,0,2.794Z" transform="translate(4.593 4.41)"/>
    <path id="Path_144" data-name="Path 144" d="M16.037,24.9H27.212a1.4,1.4,0,0,0,0-2.794H16.037a1.4,1.4,0,0,0,0,2.794Z" transform="translate(4.593 5.998)"/>
    <path id="Path_145" data-name="Path 145" d="M76.371,46.16a14.319,14.319,0,1,0,10.1,24.46h0a14.319,14.319,0,0,0-10.1-24.46Zm9.066,21.4-5.686-5.686h8.06A11.441,11.441,0,0,1,85.437,67.561Zm2.375-8.479H77.768V49.038A11.567,11.567,0,0,1,87.812,59.082Zm-22.966,1.4A11.553,11.553,0,0,1,74.974,49.038V60.479a1.4,1.4,0,0,0,.112.531,1.662,1.662,0,0,0,.307.461l8.074,8.074a11.511,11.511,0,0,1-18.621-9.066Z" transform="translate(23.517 15.606)"/>
    <path id="Path_146" data-name="Path 146" d="M62.7,27.584H90.636a1.4,1.4,0,0,0,0-2.794H62.7a1.4,1.4,0,0,0,0,2.794Z" transform="translate(23.222 7.083)"/>
    <path id="Path_147" data-name="Path 147" d="M62.7,31.584H90.636a1.4,1.4,0,0,0,0-2.794H62.7a1.4,1.4,0,0,0,0,2.794Z" transform="translate(23.222 8.676)"/>
    <path id="Path_148" data-name="Path 148" d="M62.7,35.584H90.636a1.4,1.4,0,1,0,0-2.794H62.7a1.4,1.4,0,1,0,0,2.794Z" transform="translate(23.222 10.269)"/>
    <path id="Path_149" data-name="Path 149" d="M62.7,39.584H90.636a1.4,1.4,0,0,0,0-2.794H62.7a1.4,1.4,0,0,0,0,2.794Z" transform="translate(23.222 11.861)"/>
    <path id="Path_150" data-name="Path 150" d="M62.7,43.584H90.636a1.4,1.4,0,0,0,0-2.794H62.7a1.4,1.4,0,0,0,0,2.794Z" transform="translate(23.222 13.454)"/>
    <path id="Path_151" data-name="Path 151" d="M15.987,51.994H75.678a1.4,1.4,0,1,0,0-2.794H15.987a1.4,1.4,0,1,0,0,2.794Z" transform="translate(4.573 16.803)"/>
    <path id="Path_152" data-name="Path 152" d="M15.987,55.994H75.678a1.4,1.4,0,0,0,0-2.794H15.987a1.4,1.4,0,0,0,0,2.794Z" transform="translate(4.573 18.395)"/>
    <path id="Path_153" data-name="Path 153" d="M15.987,59.994H75.678a1.4,1.4,0,1,0,0-2.794H15.987a1.4,1.4,0,1,0,0,2.794Z" transform="translate(4.573 19.988)"/>
    <path id="Path_154" data-name="Path 154" d="M15.987,63.994H75.678a1.4,1.4,0,1,0,0-2.794H15.987a1.4,1.4,0,1,0,0,2.794Z" transform="translate(4.573 21.581)"/>
  </g>
</svg>
