<?xml version="1.0" standalone="no"?>
<!DOCTYPE svg PUBLIC "-//W3C//DTD SVG 20010904//EN"
 "http://www.w3.org/TR/2001/REC-SVG-20010904/DTD/svg10.dtd">
<svg version="1.0" xmlns="http://www.w3.org/2000/svg"
 width="700.000000pt" height="700.000000pt" viewBox="0 0 700.000000 700.000000"
 preserveAspectRatio="xMidYMid meet">
<metadata>
Created by potrace 1.14, written by Peter Selinger 2001-2017
</metadata>
<g transform="translate(0.000000,700.000000) scale(0.100000,-0.100000)"
fill="#000000" stroke="none">
<path d="M575 6983 c-38 -8 -102 -30 -142 -48 -213 -98 -353 -267 -412 -495
-18 -72 -19 -120 -19 -1105 0 -1156 -3 -1104 74 -1258 100 -200 261 -330 481
-388 76 -20 102 -21 1088 -21 867 -1 1044 2 1121 18 283 57 529 328 560 618 9
79 9 2006 0 2068 -34 248 -212 478 -438 569 -151 61 -96 58 -1218 58 -871 -1
-1035 -3 -1095 -16z"/>
<path d="M4251 6985 c-87 -19 -144 -41 -226 -88 -83 -47 -205 -168 -254 -250
-41 -70 -89 -206 -97 -278 -4 -30 -7 -502 -7 -1049 0 -745 3 -1010 12 -1055
63 -307 279 -523 586 -586 45 -9 308 -12 1055 -12 547 0 1018 3 1046 6 248 30
480 209 577 447 58 142 57 106 56 1220 -1 977 -2 1028 -20 1100 -73 284 -289
490 -572 545 -105 21 -2061 20 -2156 0z"/>
<path d="M717 3334 c-1 -1 -29 -4 -62 -7 -79 -8 -99 -12 -179 -41 -100 -36
-171 -82 -252 -161 -111 -109 -178 -230 -208 -378 -15 -69 -16 -197 -13 -1115
3 -1149 -2 -1066 70 -1215 100 -210 311 -372 527 -405 59 -9 2083 -9 2136 0
296 51 548 312 590 615 9 66 9 2003 0 2077 -31 240 -192 456 -417 560 -154 71
-121 69 -1212 70 -538 1 -979 0 -980 0z"/>
<path d="M4417 3333 c-1 -1 -31 -3 -67 -4 -215 -9 -437 -135 -554 -314 -61
-94 -67 -106 -104 -225 -23 -75 -25 -167 -24 -1145 0 -983 1 -1012 21 -1087
74 -282 276 -477 561 -543 91 -20 2070 -21 2166 0 142 31 264 97 368 201 75
75 123 147 162 242 54 134 53 116 53 1212 1 1092 2 1067 -51 1200 -57 143
-180 289 -308 363 -73 42 -199 85 -275 94 -43 5 -1944 11 -1948 6z"/>
</g>
</svg>
