<svg id="Job_Resume_phone_skill" data-name="Job Resume phone skill" xmlns="http://www.w3.org/2000/svg" width="166.534" height="120" viewBox="0 0 166.534 120">
  <path id="Job_Resume_phone_skill-2" data-name="Job Resume phone skill" d="M167.676,31.164H129.025a8.363,8.363,0,0,0-8.011-6.05,8.271,8.271,0,0,0-4.681,1.425,10.75,10.75,0,0,0-9.51-10.065,10.4,10.4,0,0,0-8.085,2.72,10.639,10.639,0,0,0-1.591,1.85,10.546,10.546,0,0,0-17.374,0,9.807,9.807,0,0,0-1.573-1.85,10.491,10.491,0,0,0-8.1-2.72,10.805,10.805,0,0,0-9.529,10.861v3.83H22.323a1.609,1.609,0,0,0-.592.111L4.265,37.1a1.85,1.85,0,0,0,0,3.515l17.466,5.81a2.091,2.091,0,0,0,.592,0h22.2a14.506,14.506,0,0,0-1.314,5.995v9.251A38.633,38.633,0,0,0,65.063,96.366a4.922,4.922,0,0,1,2.886,4.385v.259a3.885,3.885,0,0,0-1.85,3.312V121.9a3.83,3.83,0,0,0,1.85,3.293v9.251a1.85,1.85,0,0,0,3.7,0v-8.659H88.3a14.08,14.08,0,0,0,12.785,0h16.356v8.789a1.85,1.85,0,0,0,3.7,0v-9.251a3.848,3.848,0,0,0,2.128-3.386V104.451a3.83,3.83,0,0,0-2.183-3.46V99.529a4.922,4.922,0,0,1,.888-2.9,38.133,38.133,0,0,0,7.4-22.573V46.521h38.3a1.85,1.85,0,0,0,1.85-1.85V33.014A1.85,1.85,0,0,0,167.676,31.164ZM10.7,38.861l11.915-4H60.641V42.82H22.619Zm59.207,83.26a.167.167,0,0,1-.167-.148V104.451a.167.167,0,0,1,.167-.167H83.639a14.191,14.191,0,0,0,0,17.892Zm14.284-8.974a10.53,10.53,0,1,0,0-.037Zm35.376-8.955a.148.148,0,0,1,0,.259v17.577a.148.148,0,0,1-.148.148h-13.71a14.173,14.173,0,0,0,0-17.892Zm-.444-9.843a8.566,8.566,0,0,0-1.591,5.088v1.055H101.272a14.21,14.21,0,0,0-13.137,0h-16.5a8.566,8.566,0,0,0-4.977-7.4A34.969,34.969,0,0,1,46.912,61.674V52.423a10.454,10.454,0,0,1,1.85-5.995H60.585V59.38a1.85,1.85,0,1,0,3.7,0v-14.8h0V33.014a2.184,2.184,0,0,0,0-.37v-5.31a7.086,7.086,0,0,1,6.18-7.179,6.827,6.827,0,0,1,7.4,6.809,1.85,1.85,0,0,0,3.7,0,6.846,6.846,0,0,1,13.673,0,1.85,1.85,0,1,0,3.7,0,6.827,6.827,0,0,1,2.239-5.051,6.642,6.642,0,0,1,5.255-1.739,7.068,7.068,0,0,1,6.18,7.16v6.143a1.85,1.85,0,1,0,3.7,0v-.333a4.644,4.644,0,0,1,4.626-4.33,4.718,4.718,0,0,1,4.663,4.459v40.7a34.433,34.433,0,0,1-6.55,20.371Zm46.7-51.529H129.377V34.864h36.449Z" transform="translate(-2.992 -16.423)" fill="#f4f1de"/>
</svg>
